<svg width="120" height="6" viewBox="0 0 120 6" fill="none" xmlns="http://www.w3.org/2000/svg">
<path fill-rule="evenodd" clip-rule="evenodd" d="M2.64883 4.259C5.18655 3.92771 11.8341 3.95968 29.8795 4.05897C58.0579 4.21616 80.43 3.99748 86.6588 3.48355C87.1535 3.43471 47.6655 2.75562 43.6026 3.00552C37.2684 3.41361 7.08003 2.80373 1.01614 2.23334C-0.707826 2.08044 -0.0482847 1.5951 1.08009 1.49844C2.84247 1.33647 7.56141 1.3891 20.5002 1.52042C29.5991 1.60565 102.003 1.74182 109.932 1.08297C114.383 0.713396 117.091 0.365865 118.323 0.462576C119.354 0.540289 119.365 0.750471 118.456 1.3215C117.845 1.70215 118.519 1.93477 118.948 2.04302C119.607 2.22302 119.315 2.81614 118.471 3.2826C117.329 3.92193 115.386 3.88996 116.327 3.24914C116.531 3.11058 116.586 2.76081 115.875 2.82556C113.803 3.02024 99.1634 4.34701 95.1939 4.56259C52.8103 6.90848 11.5551 4.65796 2.79489 5.24058C-0.310948 5.46259 1.13236 4.45782 2.64883 4.259Z" fill="#25B4F8"/>
</svg>
