<svg width="21" height="22" viewBox="0 0 21 22" fill="none" xmlns="http://www.w3.org/2000/svg">
<g clip-path="url(#clip0_1_1339)">
<path d="M19.216 18.4895C19.216 18.4895 20.4971 18.4895 20.4971 17.2085C20.4971 15.9274 19.216 12.0842 14.0918 12.0842C8.96749 12.0842 7.68642 15.9274 7.68642 17.2085C7.68642 18.4895 8.96749 18.4895 8.96749 18.4895H19.216ZM8.99567 17.2085C8.98621 17.2072 8.97681 17.2055 8.96749 17.2033C8.96877 16.8651 9.18143 15.8838 9.9411 14.9999C10.6483 14.1711 11.8909 13.3653 14.0918 13.3653C16.2914 13.3653 17.534 14.1723 18.2424 14.9999C19.0021 15.8838 19.2135 16.8664 19.216 17.2033L19.2058 17.2059C19.1998 17.2069 19.1939 17.2078 19.1879 17.2085H8.99567ZM14.0918 9.52205C14.7713 9.52205 15.423 9.25211 15.9035 8.77162C16.384 8.29112 16.6539 7.63943 16.6539 6.95991C16.6539 6.28039 16.384 5.6287 15.9035 5.1482C15.423 4.66771 14.7713 4.39777 14.0918 4.39777C13.4122 4.39777 12.7606 4.66771 12.2801 5.1482C11.7996 5.6287 11.5296 6.28039 11.5296 6.95991C11.5296 7.63943 11.7996 8.29112 12.2801 8.77162C12.7606 9.25211 13.4122 9.52205 14.0918 9.52205ZM17.935 6.95991C17.935 7.46461 17.8356 7.96436 17.6424 8.43064C17.4493 8.89692 17.1662 9.32059 16.8093 9.67747C16.4525 10.0343 16.0288 10.3174 15.5625 10.5106C15.0962 10.7037 14.5965 10.8031 14.0918 10.8031C13.5871 10.8031 13.0873 10.7037 12.621 10.5106C12.1548 10.3174 11.7311 10.0343 11.3742 9.67747C11.0173 9.32059 10.7342 8.89692 10.5411 8.43064C10.348 7.96436 10.2486 7.46461 10.2486 6.95991C10.2486 5.94063 10.6535 4.96309 11.3742 4.24235C12.095 3.52161 13.0725 3.1167 14.0918 3.1167C15.1111 3.1167 16.0886 3.52161 16.8093 4.24235C17.5301 4.96309 17.935 5.94063 17.935 6.95991ZM8.8855 12.4429C8.37305 12.2815 7.84481 12.1754 7.30979 12.1265C7.00916 12.0979 6.70733 12.0838 6.40535 12.0842C1.28107 12.0842 0 15.9274 0 17.2085C0 18.0629 0.426596 18.4895 1.28107 18.4895H6.68206C6.49215 18.0896 6.39744 17.6511 6.40535 17.2085C6.40535 15.9146 6.88831 14.5925 7.80172 13.4882C8.11302 13.1116 8.47556 12.7593 8.8855 12.4429ZM6.30286 13.3653C5.54467 14.5045 5.13509 15.8401 5.12428 17.2085H1.28107C1.28107 16.8754 1.49117 15.889 2.25468 14.9999C2.95287 14.1851 4.16604 13.3909 6.30286 13.3665V13.3653ZM1.9216 7.60044C1.9216 6.58116 2.32651 5.60363 3.04726 4.88288C3.768 4.16214 4.74553 3.75723 5.76481 3.75723C6.7841 3.75723 7.76163 4.16214 8.48238 4.88288C9.20312 5.60363 9.60802 6.58116 9.60802 7.60044C9.60802 8.61973 9.20312 9.59726 8.48238 10.318C7.76163 11.0387 6.7841 11.4437 5.76481 11.4437C4.74553 11.4437 3.768 11.0387 3.04726 10.318C2.32651 9.59726 1.9216 8.61973 1.9216 7.60044ZM5.76481 5.0383C5.08529 5.0383 4.4336 5.30824 3.95311 5.78874C3.47261 6.26923 3.20268 6.92092 3.20267 7.60044C3.20268 8.27997 3.47261 8.93166 3.95311 9.41215C4.4336 9.89265 5.08529 10.1626 5.76481 10.1626C6.44434 10.1626 7.09603 9.89265 7.57652 9.41215C8.05702 8.93166 8.32695 8.27997 8.32695 7.60044C8.32695 6.92092 8.05702 6.26923 7.57652 5.78874C7.09603 5.30824 6.44434 5.0383 5.76481 5.0383Z" fill="#828282"/>
</g>
<defs>
<clipPath id="clip0_1_1339">
<rect width="20.4971" height="20.4971" fill="white" transform="translate(0 0.554688)"/>
</clipPath>
</defs>
</svg>
