<svg width="48" height="48" viewBox="0 0 48 48" fill="none" xmlns="http://www.w3.org/2000/svg">
<g clip-path="url(#clip0_1_5067)">
<path d="M19.7963 14.1068C21.1133 15.4237 22.002 17.0857 22.368 18.9127C22.5225 19.6875 23.2095 20.25 24 20.25C24.7905 20.25 25.4775 19.6875 25.6327 18.9113L26.088 16.6327C26.1188 16.479 26.3812 16.4798 26.412 16.632L26.8673 18.912C27.0225 19.6875 27.7095 20.25 28.5 20.25C29.2905 20.25 29.9775 19.6875 30.1327 18.912C30.498 17.085 31.3875 15.4237 32.7045 14.106L33.0375 13.773C33.981 12.8303 34.5 11.5763 34.5 10.242C34.5 7.4895 32.2605 5.25 29.5072 5.25H28.9395L28.2803 5.90925C27.7455 6.44325 27.006 6.75 26.25 6.75C25.494 6.75 24.7545 6.44325 24.2197 5.90925L23.5605 5.25H22.9927C20.2395 5.25 18 7.4895 18 10.2427C18 11.577 18.519 12.831 19.4625 13.773L19.7963 14.1068ZM22.9395 6.75L23.1592 6.969C23.973 7.7835 25.0995 8.25 26.25 8.25C27.4005 8.25 28.527 7.7835 29.3407 6.96975L29.5605 6.75C31.4618 6.77925 33 8.33475 33 10.2427C33 11.1765 32.637 12.0533 31.977 12.7125L31.644 13.0455C30.117 14.5732 29.0857 16.4993 28.662 18.6165C28.6312 18.7703 28.3688 18.7695 28.338 18.6173L27.8827 16.3373C27.7275 15.5625 27.0405 15 26.25 15C25.4595 15 24.7725 15.5625 24.6173 16.3387L24.162 18.6173C24.1312 18.771 23.8688 18.771 23.838 18.6173C23.415 16.5 22.3838 14.5733 20.856 13.0463L20.523 12.7117C19.863 12.0525 19.5 11.1757 19.5 10.2427C19.5 8.33475 21.0383 6.77925 22.9395 6.75Z" fill="white"/>
<path d="M45.7702 28.914C45.3097 28.6432 44.784 28.5 44.2507 28.5C43.1932 28.5 42.2025 29.0662 41.664 29.979L40.3088 32.283C39.9442 30.8355 39.075 29.589 37.824 28.7557C37.6485 28.6388 37.4625 28.5435 37.2772 28.4468C38.7593 27.5183 39.75 25.875 39.75 24C39.75 21.339 37.758 19.1392 35.1878 18.8002C36.6818 16.8533 37.5 14.499 37.5 12C37.5 5.79675 32.4533 0.75 26.25 0.75C20.0467 0.75 15 5.79675 15 12C15 12.5798 15.0495 13.1588 15.1395 13.7333C14.6175 13.5848 14.0693 13.5 13.5 13.5C10.1918 13.5 7.5 16.1918 7.5 19.5C7.5 21.6248 8.613 23.49 10.2833 24.5565C6.48525 25.89 3.75 29.502 3.75 33.75V39.75C3.75 40.299 3.909 40.8068 4.167 41.25H3.75C2.0955 41.25 0.75 42.5955 0.75 44.25C0.75 45.9045 2.0955 47.25 3.75 47.25H32.8898C36.33 47.25 39.5497 45.408 41.2943 42.4432L46.8375 33.0188C47.6738 31.5923 47.1953 29.7502 45.7702 28.914ZM38.9108 32.868C39.0218 33.4207 39.0292 33.9795 38.9287 34.5585L38.9167 34.6493L36.1215 39.4012C35.4517 40.542 34.212 41.25 32.8898 41.25H26.25C25.6297 41.25 25.125 40.7453 25.125 40.125C25.125 39.5047 25.6297 39 26.25 39H31.9387C32.8552 39 33.717 38.5117 34.1895 37.7257L35.8927 34.8862L34.6065 34.1145L32.9032 36.954C32.7015 37.2907 32.331 37.5 31.9387 37.5H26.5905L30.7545 31.2533C31.5877 29.9993 32.9873 29.25 34.4977 29.25C35.388 29.25 36.2505 29.511 36.9923 30.0052C37.9928 30.6712 38.6745 31.6875 38.9108 32.868ZM19.3395 20.8582C21.3083 22.4025 23.709 23.25 26.25 23.25C27.3255 23.25 28.377 23.0798 29.4 22.7775C29.3055 23.1705 29.25 23.5785 29.25 24C29.25 25.8682 30.234 27.5077 31.7085 28.4385C30.8333 28.8982 30.0712 29.5718 29.5057 30.4222L25.2878 36.75H24.9773L23.25 35.5988V33.75C23.25 29.502 20.5147 25.89 16.7167 24.5565C18.0195 23.7248 18.9788 22.407 19.3395 20.8582ZM22.2728 36.75H9.74925L12.063 35.0153C13.1512 34.1992 14.499 33.75 15.8588 33.75C17.1112 33.75 18.324 34.1175 19.3665 34.812L22.2728 36.75ZM38.25 24C38.25 26.0677 36.5677 27.75 34.5 27.75C32.4323 27.75 30.75 26.0677 30.75 24C30.75 21.9323 32.4323 20.25 34.5 20.25C36.5677 20.25 38.25 21.9323 38.25 24ZM16.5 12C16.5 6.624 20.874 2.25 26.25 2.25C31.626 2.25 36 6.624 36 12C36 14.6423 34.9523 17.103 33.0578 18.9562C31.95 19.2735 30.9938 19.9463 30.3158 20.8425C29.0228 21.4403 27.657 21.75 26.25 21.75C23.697 21.75 21.3053 20.7668 19.4745 18.9907C19.317 17.13 18.3105 15.5077 16.8405 14.5185C16.6185 13.692 16.5 12.8468 16.5 12ZM9 19.5C9 17.0182 11.0182 15 13.5 15C15.9818 15 18 17.0182 18 19.5C18 21.9818 15.9818 24 13.5 24C11.0182 24 9 21.9818 9 19.5ZM13.5 25.5C18.0487 25.5 21.75 29.2013 21.75 33.75V34.599L20.1982 33.564C18.909 32.7045 17.4083 32.25 15.8588 32.25C14.1772 32.25 12.5093 32.8057 11.1637 33.8145L7.25025 36.75H6.75C6.201 36.75 5.69325 36.909 5.25 37.167V33.75C5.25 29.2013 8.95125 25.5 13.5 25.5ZM5.25 39.75C5.25 38.9227 5.92275 38.25 6.75 38.25H24.4185C23.9302 38.727 23.625 39.39 23.625 40.125C23.625 40.5293 23.7248 40.908 23.8883 41.25H6.74625C5.92125 41.2477 5.25 40.5757 5.25 39.75ZM45.5437 32.259L40.0005 41.6828C38.5245 44.1915 35.7998 45.75 32.8898 45.75H3.75C2.92275 45.75 2.25 45.0773 2.25 44.25C2.25 43.4227 2.92275 42.75 3.75 42.75H6.74625H6.75H23.25H26.25H32.8898H32.9647V42.7448C34.7887 42.7185 36.489 41.736 37.416 40.1618L42.9577 30.7402C43.3613 30.0532 44.3205 29.8027 45.012 30.2078C45.723 30.6255 45.9615 31.5465 45.5437 32.259Z" fill="white"/>
</g>
<defs>
<clipPath id="clip0_1_5067">
<rect width="48" height="48" fill="white"/>
</clipPath>
</defs>
</svg>
