<svg width="48" height="48" viewBox="0 0 48 48" fill="none" xmlns="http://www.w3.org/2000/svg">
<g clip-path="url(#clip0_1_5051)">
<path d="M6.19217 29.4529L6.19218 29.4602L6.1943 29.4673C8.73141 37.8658 14.0361 43.8325 22.7749 47.5734C22.8191 47.5923 22.8827 47.621 22.9587 47.6553C22.9818 47.6657 23.006 47.6767 23.0312 47.688C23.1389 47.7365 23.2633 47.792 23.387 47.8444C23.5105 47.8967 23.6342 47.9463 23.7404 47.9829C23.8443 48.0186 23.9387 48.0446 24.0004 48.0446C24.0618 48.0446 24.1562 48.0186 24.2599 47.9829C24.366 47.9464 24.4897 47.8969 24.6132 47.8446C24.7369 47.7922 24.8612 47.7368 24.9689 47.6884C24.9944 47.6769 25.019 47.6658 25.0423 47.6553C25.1179 47.6212 25.1811 47.5927 25.2249 47.574C33.9587 43.8362 39.2733 37.863 41.8056 29.4676L41.8077 29.4605L41.8077 29.4532L41.8319 9.38366V9.3836C41.8319 9.25284 41.8018 9.144 41.7399 9.0554C41.6782 8.96702 41.5879 8.90322 41.4751 8.85689C41.2521 8.7653 40.9293 8.73745 40.5275 8.72956C40.3232 8.72555 40.0969 8.7267 39.85 8.72795C39.1192 8.73166 38.2078 8.73628 37.1504 8.61067C34.3264 8.27523 30.4684 7.01034 26.3414 2.30221C26.0043 1.91769 25.7217 1.58121 25.4797 1.29252L25.4481 1.25482C25.2203 0.983005 25.0285 0.754171 24.8615 0.569325C24.6872 0.376272 24.5378 0.228691 24.4005 0.129256C24.2629 0.0295534 24.1335 -0.0246094 23.9998 -0.0246094C23.8662 -0.0246094 23.7368 0.0295537 23.5991 0.129257C23.4619 0.228692 23.3125 0.376274 23.1382 0.569326C22.9713 0.754164 22.7795 0.982987 22.5517 1.25479L22.5201 1.29252C22.2782 1.58121 21.9955 1.91769 21.6585 2.30221L21.6961 2.33517L21.6585 2.30221C17.5313 7.01048 13.6734 8.27537 10.8495 8.61078C9.79215 8.73637 8.88078 8.73173 8.14997 8.72801C7.90311 8.72675 7.67686 8.7256 7.47254 8.7296C7.07082 8.73748 6.74806 8.76531 6.52507 8.8569C6.41229 8.90323 6.32197 8.96702 6.26023 9.0554C6.19832 9.144 6.16826 9.25284 6.16826 9.3836L6.16826 9.38366L6.19217 29.4529ZM7.3927 29.1993V9.98234L9.23972 9.94125C14.3554 9.82838 18.5948 7.6548 22.58 3.10951L22.5424 3.07654L22.58 3.1095L24.0001 1.48936L25.4202 3.1095L25.4578 3.07654L25.4202 3.10951C29.4053 7.65452 33.6448 9.82838 38.7599 9.94125L40.6069 9.98234V29.1996L40.5263 29.4668C38.1426 37.368 32.9819 42.9217 24.7432 46.4479L24.0004 46.766L23.2567 46.4476C14.8052 42.8295 9.84053 37.2876 7.3927 29.1993Z" fill="white" stroke="white" stroke-width="0.1"/>
<path d="M8.69391 29.0831L8.69392 29.0905L8.69605 29.0975C10.9642 36.6157 15.8941 41.9075 23.7596 45.2743C23.8362 45.307 23.9183 45.3236 24.0004 45.3236H24.0007C24.0827 45.3236 24.1648 45.3071 24.241 45.2742C32.1065 41.908 37.036 36.616 39.3044 29.0978L39.3066 29.0908L39.3066 29.0834L39.3308 11.8298V11.8297C39.3308 11.4971 39.0643 11.2251 38.7317 11.2178C33.2365 11.0961 28.7023 8.78948 24.4604 3.9507C24.227 3.68414 23.7726 3.68414 23.5392 3.9507C19.2973 8.7892 14.7637 11.0958 9.26847 11.2175C8.93559 11.2249 8.66973 11.4965 8.66973 11.8294L8.66973 11.8295L8.69391 29.0831ZM38.1058 28.8295C35.9607 35.8561 31.347 40.835 24.0004 44.0434C16.6541 40.835 12.0401 35.8564 9.89473 28.8295V12.4195C15.2263 12.1465 19.8531 9.80005 24.0004 5.27137C28.1477 9.79978 32.7739 12.1462 38.1058 12.4195V28.8295Z" fill="white" stroke="white" stroke-width="0.1"/>
<path d="M20.382 34.9908L20.3821 34.9909C20.4796 35.0675 20.5945 35.1108 20.7114 35.1205V35.1228H20.7614C20.9453 35.1228 21.1403 35.0329 21.2606 34.8747C21.3826 34.7144 21.425 34.4882 21.3101 34.2245C20.6568 32.2977 21.0954 30.7453 21.8172 29.5945C22.5269 28.4629 23.5107 27.7194 24.0013 27.3945C24.4969 27.7204 25.4919 28.4688 26.2025 29.6124C26.9252 30.7756 27.3543 32.3482 26.6622 34.3066L26.6622 34.3066C26.4602 34.8793 27.1409 35.3685 27.6189 34.9914C31.8854 31.6278 31.916 27.2286 31.3714 23.6867C32.7641 22.6708 33.5839 21.0703 33.5839 19.3283C33.5839 14.5182 27.9281 12.3875 24.6665 15.215C24.3108 15.5233 24.0643 15.5895 23.8411 15.5357C23.7267 15.5081 23.6139 15.448 23.4914 15.3636C23.3881 15.2923 23.2805 15.2057 23.1609 15.1092C23.1385 15.0912 23.1156 15.0727 23.0923 15.054C22.7978 14.8177 22.4355 14.5395 21.925 14.3209C21.4143 14.1022 20.7575 13.9441 19.8738 13.9441C14.5448 13.9441 12.4467 20.6391 16.6295 23.6861C16.0849 27.2281 16.1158 31.6269 20.382 34.9908ZM30.382 22.8774L30.382 22.8774C30.1707 23.0085 30.0595 23.2538 30.1008 23.4988C30.7926 27.6291 30.2277 30.5002 28.2249 32.7544C28.3391 30.7589 27.4427 29.1026 26.4459 27.9395C25.9352 27.3437 25.3973 26.8761 24.9528 26.5572C24.7306 26.3977 24.5311 26.275 24.3696 26.1919C24.2889 26.1503 24.217 26.1183 24.1559 26.0966C24.096 26.0753 24.0427 26.0624 24.0006 26.0624H24.0003C23.9582 26.0624 23.9048 26.0753 23.8448 26.0966C23.7837 26.1183 23.7117 26.1503 23.631 26.1919C23.4694 26.2751 23.2699 26.3978 23.0476 26.5573C22.6031 26.8764 22.0652 27.344 21.5546 27.9399C20.5579 29.103 19.6618 30.7592 19.7759 32.7538C17.7729 30.4994 17.2083 27.6285 17.9001 23.4983C17.9411 23.2532 17.8299 23.0079 17.6189 22.8769L17.6189 22.8769C16.3809 22.1089 15.642 20.7825 15.642 19.3281C15.642 17.4132 16.7532 16.0877 18.1706 15.5044C19.5897 14.9204 21.3122 15.0819 22.5315 16.1402C23.0958 16.6299 23.5519 16.8195 23.9668 16.8183C24.3805 16.8172 24.7424 16.6262 25.1164 16.3812C25.219 16.3139 25.3229 16.2424 25.4295 16.169C26.1023 15.7059 26.8814 15.1694 28.1271 15.1694C32.5063 15.1694 33.8826 20.7069 30.382 22.8774Z" fill="white" stroke="white" stroke-width="0.1"/>
<path d="M21.5311 17.7532L21.5311 17.7532C21.6488 17.6174 21.7667 17.5452 21.8898 17.5269C22.0124 17.5087 22.1309 17.5454 22.247 17.6083C22.3627 17.6709 22.4814 17.7624 22.6049 17.8606C22.6204 17.8729 22.636 17.8853 22.6517 17.8978C22.7623 17.986 22.8782 18.0784 23.0041 18.1638C23.2906 18.3581 23.623 18.5121 24.0393 18.4845C24.4563 18.4568 24.9663 18.2462 25.6055 17.6919L25.6055 17.6919C25.7558 17.5616 25.9211 17.519 26.075 17.54C26.2275 17.5609 26.3652 17.6438 26.4641 17.7579C26.5631 17.8721 26.6256 18.02 26.6246 18.174C26.6236 18.3293 26.5579 18.4868 26.4076 18.6172L26.4076 18.6172C25.5873 19.3281 24.795 19.7326 24.0005 19.7327L21.5311 17.7532ZM21.5311 17.7532C21.4321 17.8674 21.3826 17.9877 21.3772 18.111C21.3719 18.2335 21.4106 18.354 21.4791 18.4689C21.6153 18.6972 21.8748 18.9128 22.1769 19.0978C22.4802 19.2836 22.8318 19.442 23.1586 19.554C23.4842 19.6655 23.7897 19.7327 24.0003 19.7327L21.5311 17.7532Z" fill="white" stroke="white" stroke-width="0.1"/>
</g>
<defs>
<clipPath id="clip0_1_5051">
<rect width="48" height="48" fill="white"/>
</clipPath>
</defs>
</svg>
